<?xml version="1.0" encoding="UTF-8"?>
<svg id="tipografia" xmlns="http://www.w3.org/2000/svg" version="1.1" viewBox="0 0 595.3 841.9">
  <!-- Generator: Adobe Illustrator 29.3.1, SVG Export Plug-In . SVG Version: 2.1.0 Build 151)  -->
  <defs>
    <style>
      .st0 {
        fill: none;
        stroke: #000;
        stroke-miterlimit: 10;
      }

      .st1, .st2 {
        fill: #1d3d91;
      }

      .st3 {
        fill: #1d1d1b;
      }

      .st3, .st4, .st5, .st6, .st2 {
        isolation: isolate;
      }

      .st3, .st6 {
        font-family: Poppins-Light, Poppins;
        font-size: 16.5px;
        font-weight: 300;
      }

      .st7 {
        fill: #dd5240;
      }

      .st8, .st4, .st6 {
        fill: #606060;
      }

      .st4, .st2 {
        font-family: MyanmarText-Bold, 'Myanmar Text';
        font-size: 125px;
        font-weight: 700;
      }

      .st9 {
        fill: #e30e60;
      }

      .st10 {
        fill: #399181;
      }
    </style>
  </defs>
  <g>
    <g>
      <polygon class="st1" points="55.4 208.9 69.9 207.4 72.2 224.6 57.6 226.2 55.4 208.9"/>
      <polygon class="st1" points="78.1 167.4 92.2 165.9 99.7 220.6 85.1 222.2 78.1 167.4"/>
      <polygon class="st1" points="97.6 118.7 113.2 117.1 126.7 217.2 112.2 219.1 97.6 118.7"/>
    </g>
    <polygon class="st9" points="218.8 236.4 204.8 237.3 203.1 220.1 217.3 219.1 218.8 236.4"/>
    <polygon class="st9" points="199.2 275.3 185.4 276.9 178.3 222.6 193 221.4 199.2 275.3"/>
    <polygon class="st9" points="181.5 325.8 166.7 326.7 152.7 225.7 167.4 224.1 181.5 325.8"/>
    <polygon class="st7" points="45.6 239.4 47.9 256.2 136.9 244.4 135.4 228.2 45.6 239.4"/>
    <polygon class="st7" points="81.6 263.9 83.1 278.8 141.2 270.9 139.9 257.2 81.6 263.9"/>
    <polygon class="st7" points="126.1 284.8 128 299.3 144.6 296.9 142.7 282.3 126.1 284.8"/>
    <polygon class="st10" points="136.5 190.8 193.9 183.4 192.5 170.1 135 177.3 136.5 190.8"/>
    <polygon class="st10" points="149 151.1 131.2 153.1 133.1 166.8 150.3 164.7 149 151.1"/>
    <polyline class="st10" points="138.8 200.4 140.5 213.7 228.3 204.3 226.4 189.9 138.8 200.9"/>
    <g class="st5">
      <g class="st5">
        <text class="st2" transform="translate(242.1 264.4)"><tspan x="0" y="0">CDEP</tspan></text>
      </g>
    </g>
    <line class="st0" x1="254.1" y1="311.2" x2="254.1" y2="269.9"/>
    <g class="st5">
      <g class="st5">
        <text class="st3" transform="translate(260.5 286.7) scale(.9 1)"><tspan x="0" y="0">Centro Colombiano para el Desarrollo</tspan></text>
      </g>
    </g>
    <g class="st5">
      <g class="st5">
        <text class="st3" transform="translate(260.8 304.6) scale(.9 1)"><tspan x="0" y="0">de la Economía Popular</tspan></text>
      </g>
    </g>
  </g>
  <g>
    <g>
      <polygon class="st8" points="52.5 456.4 67 455 69.3 472.1 54.7 473.7 52.5 456.4"/>
      <polygon class="st8" points="75.2 415 89.3 413.4 96.7 468.2 82.1 469.8 75.2 415"/>
      <polygon class="st8" points="94.7 366.2 110.3 364.6 123.8 464.7 109.3 466.6 94.7 366.2"/>
    </g>
    <polygon class="st8" points="216.2 483.7 202.3 485.1 199.8 468 213.9 466.4 216.2 483.7"/>
    <polygon class="st8" points="196.3 522.9 182.4 524.6 175.4 470.1 190 469.1 196.3 522.9"/>
    <polygon class="st8" points="178.6 573.3 163.8 574.2 149.8 473.2 164.4 471.6 178.6 573.3"/>
    <polygon class="st8" points="42.7 487 44.9 503.7 133.9 492 132.4 475.8 42.7 487"/>
    <polygon class="st8" points="78.7 511.5 80.1 526.3 138.2 518.5 137 504.7 78.7 511.5"/>
    <polygon class="st8" points="123.1 532.3 125 546.9 141.7 544.5 139.8 529.8 123.1 532.3"/>
    <polygon class="st8" points="133.6 438.4 191 431 189.5 417.7 132.1 424.8 133.6 438.4"/>
    <polygon class="st8" points="146.1 398.6 128.3 400.6 130.2 414.4 147.3 412.3 146.1 398.6"/>
    <polyline class="st8" points="135.8 448.1 137.6 461.2 225.4 451.8 223.5 437.6 135.9 448.5"/>
    <g class="st5">
      <g class="st5">
        <text class="st4" transform="translate(239.2 512)"><tspan x="0" y="0">CDEP</tspan></text>
      </g>
    </g>
    <line class="st8" x1="251.2" y1="558.7" x2="251.2" y2="517.5"/>
    <g class="st5">
      <g class="st5">
        <text class="st6" transform="translate(257.6 534.3) scale(.9 1)"><tspan x="0" y="0">Centro Colombiano para el Desarrollo</tspan></text>
      </g>
    </g>
    <g class="st5">
      <g class="st5">
        <text class="st6" transform="translate(257.9 552.3) scale(.9 1)"><tspan x="0" y="0">de la Economía Popular</tspan></text>
      </g>
    </g>
  </g>
</svg>